<svg viewBox="0 0 200 200" xmlns="http://www.w3.org/2000/svg">
<mask id="mask0" mask-type="alpha">
  <path fill="#00000" d="M35.7,-56.7C44.3,-50,48,-36.8,56.7,-24.1C65.3,-11.3,78.8,1,79.6,13.1C80.4,25.2,68.5,37.1,57.1,48.7C45.8,60.4,35.1,71.9,23.1,72.7C11,73.5,-2.4,63.7,-18.6,60.4C-34.8,57,-53.8,60,-66.5,53.2C-79.2,46.4,-85.7,29.8,-83.1,15C-80.5,0.2,-68.8,-13,-60.9,-26.7C-52.9,-40.5,-48.7,-54.9,-39.2,-61.2C-29.7,-67.5,-14.9,-65.6,-0.7,-64.6C13.5,-63.5,27.1,-63.3,35.7,-56.7Z" transform="translate(100 100)" />
  </mask>
  <g mask="url(#mask0)">
     <path fill="#00000" d="M35.7,-56.7C44.3,-50,48,-36.8,56.7,-24.1C65.3,-11.3,78.8,1,79.6,13.1C80.4,25.2,68.5,37.1,57.1,48.7C45.8,60.4,35.1,71.9,23.1,72.7C11,73.5,-2.4,63.7,-18.6,60.4C-34.8,57,-53.8,60,-66.5,53.2C-79.2,46.4,-85.7,29.8,-83.1,15C-80.5,0.2,-68.8,-13,-60.9,-26.7C-52.9,-40.5,-48.7,-54.9,-39.2,-61.2C-29.7,-67.5,-14.9,-65.6,-0.7,-64.6C13.5,-63.5,27.1,-63.3,35.7,-56.7Z" transform="translate(100 100)" />
     <image xlink:href="" />
  </g>
</svg>